<?xml version="1.0" standalone="no"?><!DOCTYPE svg PUBLIC "-//W3C//DTD SVG 1.1//EN" "http://www.w3.org/Graphics/SVG/1.1/DTD/svg11.dtd"><svg class="icon" width="200px" height="200.00px" viewBox="0 0 1024 1024" version="1.1" xmlns="http://www.w3.org/2000/svg"><path   d="M410.4 609.4c-11.55-11.55-11.55-30.27 0-41.82l460.06-460.06c11.55-11.55 30.27-11.55 41.82 0s11.55 30.27 0 41.82L452.23 609.4c-11.55 11.55-30.28 11.55-41.83 0z"  /><path   d="M868.36 871.07H158.59V161.3h345.03c16.33 0 29.57-13.24 29.57-29.57s-13.24-29.57-29.57-29.57H158.59c-32.67 0-59.15 26.48-59.15 59.15v709.77c0 32.67 26.48 59.15 59.15 59.15h709.77c32.67 0 59.15-26.48 59.15-59.15V526.04c0-16.33-13.24-29.57-29.57-29.57s-29.57 13.24-29.57 29.57v345.03z"  /></svg>