<?xml version="1.0" standalone="no"?><!DOCTYPE svg PUBLIC "-//W3C//DTD SVG 1.1//EN" "http://www.w3.org/Graphics/SVG/1.1/DTD/svg11.dtd"><svg class="icon" width="200px" height="200.00px" viewBox="0 0 1024 1024" version="1.1" xmlns="http://www.w3.org/2000/svg"><path   d="M512.7 126.27c213.18 0 386.61 173.43 386.61 386.61S725.88 899.49 512.7 899.49 126.09 726.06 126.09 512.88 299.52 126.27 512.7 126.27m0-61.05c-247.23 0-447.66 200.42-447.66 447.66S265.47 960.53 512.7 960.53s447.66-200.42 447.66-447.66S759.93 65.22 512.7 65.22z"  /><path   d="M644.96 431.49c16.86 0 30.52-13.67 30.52-30.52 0-16.86-13.67-30.52-30.52-30.52h-73.99l49.64-49.64c11.92-11.92 11.92-31.24 0-43.16-11.92-11.92-31.24-11.92-43.16 0L512.7 342.4l-64.75-64.75c-11.92-11.92-31.24-11.92-43.16 0-11.92 11.92-11.92 31.24 0 43.16l49.64 49.64h-73.99c-16.86 0-30.52 13.67-30.52 30.52 0 16.86 13.67 30.52 30.52 30.52h101.74v101.74H380.44c-16.86 0-30.52 13.67-30.52 30.52 0 16.86 13.67 30.52 30.52 30.52h101.74v193.31c0 16.86 13.67 30.52 30.52 30.52 16.86 0 30.52-13.67 30.52-30.52V594.27h101.74c16.86 0 30.52-13.67 30.52-30.52 0-16.86-13.67-30.52-30.52-30.52H543.22V431.49h101.74z"  /></svg>