<?xml version="1.0" standalone="no"?><!DOCTYPE svg PUBLIC "-//W3C//DTD SVG 1.1//EN" "http://www.w3.org/Graphics/SVG/1.1/DTD/svg11.dtd"><svg class="icon" width="200px" height="200.00px" viewBox="0 0 1024 1024" version="1.1" xmlns="http://www.w3.org/2000/svg"><path   d="M755.72 268.71v634.81H120.91V268.71h634.81m0-56.01H120.91c-30.93 0-56.01 25.08-56.01 56.01v634.81c0 30.93 25.08 56.01 56.01 56.01h634.81c30.93 0 56.01-25.08 56.01-56.01V268.71c0-30.94-25.07-56.01-56.01-56.01z"  /><path   d="M905.09 63.33H270.28c-30.94 0-56.01 25.08-56.01 56.01v93.35h56.01v-93.35h634.81v634.81h-93.35v56.01h93.35c30.94 0 56.01-25.08 56.01-56.01V119.34c0-30.93-25.08-56.01-56.01-56.01z"  /><path   d="M578.35 502.09H298.28c-15.47 0-28.01-12.54-28.01-28.01 0-15.47 12.54-28.01 28.01-28.01h280.06c15.47 0 28.01 12.54 28.01 28.01 0 15.48-12.53 28.01-28 28.01zM578.35 726.15H298.28c-15.47 0-28.01-12.54-28.01-28.01 0-15.47 12.54-28.01 28.01-28.01h280.06c15.47 0 28.01 12.54 28.01 28.01 0 15.47-12.53 28.01-28 28.01z"  /></svg>