<?xml version="1.0" standalone="no"?><!DOCTYPE svg PUBLIC "-//W3C//DTD SVG 1.1//EN" "http://www.w3.org/Graphics/SVG/1.1/DTD/svg11.dtd"><svg class="icon" width="200px" height="200.00px" viewBox="0 0 1024 1024" version="1.1" xmlns="http://www.w3.org/2000/svg"><path   d="M546.133333 546.133333h193.422223a91.022222 91.022222 0 0 1 91.022222 91.022223v102.4a91.022222 91.022222 0 0 1-91.022222 91.022222h-102.4a91.022222 91.022222 0 0 1-91.022223-91.022222V546.133333zM284.444444 193.422222h102.4a91.022222 91.022222 0 0 1 91.022223 91.022222v193.422223H284.444444a91.022222 91.022222 0 0 1-91.022222-91.022223v-102.4a91.022222 91.022222 0 0 1 91.022222-91.022222z m0 352.711111h193.422223v193.422223a91.022222 91.022222 0 0 1-91.022223 91.022222h-102.4a91.022222 91.022222 0 0 1-91.022222-91.022222v-102.4a91.022222 91.022222 0 0 1 91.022222-91.022223z m352.711112-352.711111h102.4a91.022222 91.022222 0 0 1 91.022222 91.022222v102.4a91.022222 91.022222 0 0 1-91.022222 91.022223H546.133333V284.444444a91.022222 91.022222 0 0 1 91.022223-91.022222z"  /></svg>