<?xml version="1.0" standalone="no"?><!DOCTYPE svg PUBLIC "-//W3C//DTD SVG 1.1//EN" "http://www.w3.org/Graphics/SVG/1.1/DTD/svg11.dtd"><svg class="icon" width="200px" height="200.00px" viewBox="0 0 1024 1024" version="1.1" xmlns="http://www.w3.org/2000/svg"><path   d="M460.76 794.82l25.01 25.01c13.81 13.81 36.21 13.81 50.02 0l25.01-25.01 175.06-175.06c13.81-13.81 13.81-36.21 0-50.02-13.81-13.81-36.21-13.81-50.02 0l-139.7 139.7V99.59c0-19.53-15.83-35.37-35.37-35.37-19.53 0-35.37 15.83-35.37 35.37v609.84l-139.7-139.7c-13.81-13.81-36.21-13.81-50.02 0-13.81 13.81-13.81 36.21 0 50.02l175.08 175.07zM829.1 889.49H192.47c-19.53 0-35.37 15.83-35.37 35.37s15.83 35.37 35.37 35.37H829.1c19.53 0 35.37-15.83 35.37-35.37s-15.84-35.37-35.37-35.37z" /></svg>