<?xml version="1.0" standalone="no"?><!DOCTYPE svg PUBLIC "-//W3C//DTD SVG 1.1//EN" "http://www.w3.org/Graphics/SVG/1.1/DTD/svg11.dtd"><svg class="icon" width="200px" height="200.00px" viewBox="0 0 1024 1024" version="1.1" xmlns="http://www.w3.org/2000/svg"><path   d="M850.830222 464.702578c-2.6624-14.893511-16.9984-29.878044-31.835022-33.257245l-10.990933-2.537244a110.432711 110.432711 0 0 1-63.965867-50.528711 109.533867 109.533867 0 0 1-11.787378-81.055289l3.254045-10.387911c4.460089-14.449778-1.3312-34.360889-12.879645-44.145778 0 0-10.456178-8.795022-39.913244-25.759289-29.468444-16.941511-42.245689-21.560889-42.245689-21.560889-14.301867-5.142756-34.474667-0.250311-44.794311 10.865778l-7.759645 8.2944a110.466844 110.466844 0 0 1-75.935289 30.082844 110.466844 110.466844 0 0 1-76.1856-30.287644l-7.4752-8.055467c-10.296889-11.093333-30.492444-16.008533-44.771555-10.8544 0 0-12.788622 4.596622-42.325333 21.560889-29.400178 16.952889-39.799467 25.713778-39.799467 25.713778-11.582578 9.784889-17.408 29.604978-12.9024 44.123022l3.231289 10.490311a110.2848 110.2848 0 0 1-76.117334 131.549867l-10.752 2.446222c-14.768356 3.356444-29.127111 18.375111-31.800888 33.245867 0 0-2.412089 13.368889-2.412089 47.3088 0 33.951289 2.412089 47.263289 2.412089 47.263289 2.696533 14.927644 17.021156 29.9008 31.800888 33.336889l10.501689 2.332444a110.8992 110.8992 0 0 1 64.580267 50.801778 109.863822 109.863822 0 0 1 11.741867 81.032533l-3.185778 10.365156c-4.494222 14.4384 1.319822 34.338133 12.936533 44.1344 0 0 10.399289 8.783644 39.879111 25.747911 29.479822 17.009778 42.234311 21.572267 42.234311 21.572267 14.313244 5.142756 34.429156 0.2048 44.771556-10.831645l7.395556-7.918933a110.216533 110.216533 0 0 1 76.242488-30.355911 111.047111 111.047111 0 0 1 76.356267 30.355911h0.022756l7.315911 7.918933c10.331022 11.036444 30.4128 15.9744 44.7488 10.831645 0 0 12.743111-4.642133 42.325333-21.572267 29.422933-16.952889 39.8336-25.747911 39.8336-25.747911 11.593956-9.784889 17.339733-29.616356 12.925156-44.1344l-3.254045-10.695111a110.421333 110.421333 0 0 1 11.787378-80.702578 111.069867 111.069867 0 0 1 64.546133-50.801778v-0.045511l10.501689-2.400711c14.836622-3.367822 29.161244-18.3296 31.835022-33.268622 0 0 2.412089-13.346133 2.412089-47.320178-0.079644-33.792-2.503111-47.149511-2.503111-47.149511zM492.202667 384.9216l93.001955 17.271467 53.577956 78.153955-17.237334 93.229511-77.949155 53.703111-93.013333-17.271466-53.566578-78.153956 17.237333-93.229511 77.937778-53.703111z"  /></svg>