<?xml version="1.0" standalone="no"?><!DOCTYPE svg PUBLIC "-//W3C//DTD SVG 1.1//EN" "http://www.w3.org/Graphics/SVG/1.1/DTD/svg11.dtd"><svg class="icon" width="200px" height="200.00px" viewBox="0 0 1024 1024" version="1.1" xmlns="http://www.w3.org/2000/svg"><path   d="M511.06 63.87c-247.28 0-447.73 200.46-447.73 447.73s200.46 447.73 447.73 447.73S958.8 758.88 958.8 511.6 758.34 63.87 511.06 63.87z m-9.17 729.39c-43.94 0-76.18-30.01-76.18-72.5 0-42.49 32.24-71.79 76.18-71.79 43.96 0 76.2 29.29 76.2 71.79 0 42.49-32.24 72.5-76.2 72.5z m46.89-194.85H454.3c-16.12-117.94 114.28-145.04 114.28-218.3 0-39.56-24.92-63-66.68-63-35.16 0-63.72 15.38-91.56 46.16l-60.06-55.68c41.02-46.88 95.95-77.65 163.35-77.65 91.58 0 158.24 47.61 158.24 140.65-0.01 110.61-134.07 123.8-123.09 227.82z" /></svg>