<?xml version="1.0" standalone="no"?><!DOCTYPE svg PUBLIC "-//W3C//DTD SVG 1.1//EN" "http://www.w3.org/Graphics/SVG/1.1/DTD/svg11.dtd"><svg class="icon" width="200px" height="200.00px" viewBox="0 0 1024 1024" version="1.1" xmlns="http://www.w3.org/2000/svg"><path   d="M844.95 595.78H692.18c67.65-53.22 111.24-135.63 111.24-228.38 0-160.53-130.13-290.66-290.66-290.66S222.1 206.87 222.1 367.4c0 92.75 43.6 175.16 111.24 228.38H180.57c-45.87 0-83.05 37.18-83.05 83.05v269.9H928v-269.9c0-45.87-37.19-83.05-83.05-83.05zM284.38 367.4c0-125.93 102.45-228.38 228.38-228.38S741.14 241.47 741.14 367.4 638.69 595.78 512.76 595.78 284.38 493.33 284.38 367.4z m581.33 519.04h-705.9V678.83c0-11.45 9.31-20.76 20.76-20.76h664.37c11.45 0 20.76 9.31 20.76 20.76v207.61z"  /><path   d="M772.28 814.4H668.47c-17.2 0-31.14-13.94-31.14-31.14 0-17.2 13.94-31.14 31.14-31.14h103.81c17.2 0 31.14 13.94 31.14 31.14 0.01 17.2-13.94 31.14-31.14 31.14z"  /></svg>